<svg data-v-423bf9ae="" xmlns="http://www.w3.org/2000/svg" viewBox="0 0 332.30327721664753 60" class="font"><!----><!----><!----><g data-v-423bf9ae="" id="d34f7c02-7050-4cd2-8fc7-335d8c2233ee" fill="black" transform="matrix(5.758157347474804,0,0,5.758157347474804,0.748559015931761,-3.8579646248380683)"><path d="M6.96 0.67L6.96 0.67L6.96 3.02L4.59 3.02L4.59 11.09L2.24 11.09L2.24 3.02L-0.13 3.02L-0.13 0.67L6.96 0.67ZM14.34 11.09L11.91 11.09L10.09 7.14L10.07 7.14L10.07 11.09L7.71 11.09L7.71 0.67L10.88 0.67L10.89 0.67L10.89 0.67Q11.56 0.67 12.16 0.92L12.16 0.92L12.16 0.92Q12.75 1.18 13.20 1.62L13.20 1.62L13.20 1.62Q13.64 2.06 13.89 2.65L13.89 2.65L13.89 2.65Q14.14 3.23 14.14 3.91L14.14 3.91L14.14 3.91Q14.14 4.86 13.65 5.62L13.65 5.62L13.65 5.62Q13.16 6.38 12.36 6.79L12.36 6.79L14.34 11.09ZM21.41 3.02L21.41 3.02L17.37 3.02L17.37 4.70L20.34 4.70L20.34 7.06L17.37 7.06L17.37 8.74L21.41 8.74L21.41 11.09L15.02 11.09L15.02 0.67L21.41 0.67L21.41 3.02ZM29.68 0.67L29.68 0.67L32.03 0.67L28.41 11.09L26.03 11.09L22.40 0.67L24.75 0.67L27.22 7.76L29.68 0.67ZM39.80 5.88L39.80 5.88L39.80 5.88Q39.80 6.93 39.41 7.88L39.41 7.88L39.41 7.88Q39.02 8.82 38.26 9.58L38.26 9.58L38.26 9.58Q37.56 10.26 36.69 10.65L36.69 10.65L36.69 10.65Q35.81 11.03 34.85 11.09L34.85 11.09L34.54 11.09L32.44 11.09L32.44 0.67L34.54 0.67L34.54 0.67Q35.59 0.67 36.55 1.06L36.55 1.06L36.55 1.06Q37.51 1.44 38.26 2.18L38.26 2.18L38.26 2.18Q39.02 2.94 39.41 3.89L39.41 3.89L39.41 3.89Q39.80 4.83 39.80 5.88ZM46.96 3.02L46.96 3.02L42.92 3.02L42.92 4.70L45.89 4.70L45.89 7.06L42.92 7.06L42.92 8.74L46.96 8.74L46.96 11.09L40.57 11.09L40.57 0.67L46.96 0.67L46.96 3.02ZM55.23 0.67L55.23 0.67L57.58 0.67L53.96 11.09L51.58 11.09L47.95 0.67L50.30 0.67L52.77 7.76L55.23 0.67Z"></path></g><!----><!----></svg>